<?xml version="1.0" standalone="no"?>
<!DOCTYPE svg PUBLIC "-//W3C//DTD SVG 20010904//EN"
 "http://www.w3.org/TR/2001/REC-SVG-20010904/DTD/svg10.dtd">
<svg version="1.0" xmlns="http://www.w3.org/2000/svg"
 width="180.000000pt" height="180.000000pt" viewBox="0 0 180.000000 180.000000"
 preserveAspectRatio="xMidYMid meet">
<metadata>
Created by potrace 1.11, written by Peter Selinger 2001-2013
</metadata>
<g transform="translate(0.000000,180.000000) scale(0.100000,-0.100000)"
fill="#000000" stroke="none">
<path d="M741 1539 c-17 -17 -34 -42 -37 -56 -14 -53 5 -219 40 -363 20 -80
36 -171 36 -202 0 -49 -3 -59 -26 -77 -33 -26 -45 -26 -78 0 -31 24 -49 58
-126 235 -31 72 -73 156 -94 186 -57 87 -121 101 -153 32 -14 -29 -15 -43 -5
-96 15 -81 47 -143 128 -253 62 -84 114 -175 114 -201 0 -18 -40 -64 -55 -64
-8 0 -49 30 -92 67 -92 80 -165 134 -211 157 -32 16 -35 16 -52 1 -70 -63 -2
-183 176 -307 109 -76 140 -109 147 -155 17 -105 116 -237 215 -287 80 -40
194 -33 248 16 20 18 22 18 68 -3 112 -49 217 -17 349 109 45 43 129 112 187
153 129 91 210 167 210 197 0 34 -54 62 -118 62 -58 0 -96 -16 -158 -66 -40
-33 -44 -34 -130 -34 -72 0 -98 -5 -139 -24 -51 -24 -112 -82 -139 -134 -16
-31 -33 -42 -53 -35 -52 18 78 188 174 228 21 9 69 19 107 22 l68 6 -8 71
c-12 100 -9 159 20 336 38 232 42 290 22 327 -37 73 -89 81 -145 23 -46 -48
-58 -89 -71 -243 -17 -195 -28 -243 -62 -272 -45 -38 -104 -28 -127 23 -17 36
-41 205 -41 287 -1 185 -33 330 -78 354 -38 20 -79 13 -111 -20z"/>
</g>
</svg>
