<?xml version="1.0" standalone="no"?>
<!DOCTYPE svg PUBLIC "-//W3C//DTD SVG 20010904//EN"
 "http://www.w3.org/TR/2001/REC-SVG-20010904/DTD/svg10.dtd">
<svg version="1.0" xmlns="http://www.w3.org/2000/svg"
 width="169.000000pt" height="169.000000pt" viewBox="0 0 169.000000 169.000000"
 preserveAspectRatio="xMidYMid meet">
<metadata>
Created by potrace 1.11, written by Peter Selinger 2001-2013
</metadata>
<g transform="translate(0.000000,169.000000) scale(0.100000,-0.100000)"
fill="#000000" stroke="none">
<path d="M955 1456 c-22 -7 -60 -23 -85 -36 -42 -21 -44 -24 -23 -33 30 -13
78 -109 98 -197 10 -41 20 -87 24 -101 l6 -27 65 39 c36 22 88 47 117 55 51
15 52 16 47 47 -20 121 -39 173 -78 215 -46 51 -95 62 -171 38z"/>
<path d="M695 1326 c-76 -18 -137 -56 -160 -98 -20 -37 -20 -38 -1 -89 28 -81
134 -317 177 -395 40 -73 60 -96 92 -107 17 -6 17 -4 -2 22 -27 37 -43 112
-35 163 6 33 21 56 77 115 l70 73 -7 53 c-7 63 -67 230 -92 258 -19 22 -47 23
-119 5z"/>
<path d="M419 1127 c-19 -12 -47 -45 -62 -72 -26 -47 -28 -56 -23 -135 7 -125
45 -225 111 -293 75 -77 170 -104 248 -69 26 12 47 26 47 32 0 6 -24 45 -54
88 -53 76 -126 226 -173 352 -51 139 -43 131 -94 97z"/>
<path d="M1133 1090 c-63 -28 -130 -76 -202 -144 -75 -72 -93 -103 -94 -165
-3 -105 25 -127 148 -119 61 4 90 12 151 42 74 37 104 41 104 12 0 -33 -111
-88 -212 -106 -35 -6 -90 -16 -123 -22 -88 -15 -91 -16 -135 -53 -29 -24 -58
-38 -101 -46 -52 -10 -65 -17 -95 -54 -33 -41 -110 -84 -151 -85 -23 -1 45
-63 100 -92 87 -44 221 -41 322 7 48 23 52 23 120 10 98 -20 182 -18 230 4 48
22 161 141 211 222 103 171 110 346 19 484 -75 113 -187 153 -292 105z"/>
<path d="M238 893 c-31 -36 -42 -70 -42 -133 1 -170 104 -315 233 -328 90 -8
134 45 69 82 -54 31 -128 108 -155 161 -14 28 -39 92 -55 143 -16 50 -30 92
-32 92 -2 0 -10 -8 -18 -17z"/>
</g>
</svg>
