<?xml version="1.0" standalone="no"?>
<!DOCTYPE svg PUBLIC "-//W3C//DTD SVG 20010904//EN"
 "http://www.w3.org/TR/2001/REC-SVG-20010904/DTD/svg10.dtd">
<svg version="1.0" xmlns="http://www.w3.org/2000/svg"
 width="166.000000pt" height="195.000000pt" viewBox="0 0 166.000000 195.000000"
 preserveAspectRatio="xMidYMid meet">
<metadata>
Created by potrace 1.11, written by Peter Selinger 2001-2013
</metadata>
<g transform="translate(0.000000,195.000000) scale(0.100000,-0.100000)"
fill="#000000" stroke="none">
<path d="M535 1715 c-50 -49 -28 -203 65 -463 22 -62 40 -122 40 -134 0 -11
14 -36 31 -56 17 -20 38 -51 46 -70 l14 -35 127 6 c145 6 229 -12 273 -59 27
-28 136 -104 151 -104 9 0 8 15 -19 168 -15 80 -15 112 -5 245 23 286 13 410
-35 467 -29 35 -80 41 -106 12 -37 -41 -51 -106 -67 -332 -17 -233 -50 -310
-132 -310 -76 0 -108 64 -158 312 -48 237 -74 313 -122 358 -30 27 -73 26
-103 -5z"/>
<path d="M463 1042 c-27 -21 -62 -100 -70 -158 -5 -40 -4 -41 22 -41 15 0 39
-9 53 -20 26 -19 141 -206 142 -230 0 -7 14 -28 31 -48 36 -41 76 -46 125 -16
61 37 50 127 -21 166 -60 33 -105 97 -105 149 0 23 7 52 16 64 22 31 12 63
-35 112 -34 36 -43 40 -87 40 -31 0 -57 -7 -71 -18z"/>
<path d="M760 893 c-51 -5 -60 -14 -60 -64 0 -24 7 -42 23 -56 20 -19 144 -65
209 -78 36 -7 56 -29 64 -71 6 -32 3 -40 -37 -80 -51 -52 -74 -46 -44 13 11
21 21 41 23 44 5 12 -29 39 -49 39 -16 0 -19 -7 -19 -44 0 -52 -30 -101 -80
-128 -34 -19 -70 -19 -127 -3 -17 6 -22 2 -28 -23 -10 -47 -51 -82 -96 -82
-21 0 -49 4 -63 10 -14 5 -26 8 -26 5 0 -12 91 -88 135 -112 60 -33 137 -37
203 -10 56 22 95 22 177 -4 86 -26 117 -21 193 35 98 72 162 164 182 261 9 43
8 61 -7 106 -16 48 -24 56 -79 89 -34 19 -78 48 -98 63 -20 16 -64 44 -97 63
-59 33 -64 34 -157 32 -54 -1 -117 -3 -142 -5z"/>
<path d="M336 759 c-22 -17 -26 -28 -26 -72 0 -88 16 -125 84 -193 54 -54 69
-63 111 -70 43 -6 51 -4 67 16 26 32 22 64 -17 154 -73 168 -146 223 -219 165z"/>
</g>
</svg>
